Coordinates
version=1
nRows=5
nColumns=40
inDegrees=yes

Units are S.I. units (second, meters, Newtons, ...)
Angles are in degrees.

endheader
time	pelvis_tilt	pelvis_list	pelvis_rotation	pelvis_tx	pelvis_ty	pelvis_tz	hip_flexion_r	hip_adduction_r	hip_rotation_r	knee_angle_r	knee_angle_r_beta	ankle_angle_r	subtalar_angle_r	mtp_angle_r	hip_flexion_l	hip_adduction_l	hip_rotation_l	knee_angle_l	knee_angle_l_beta	ankle_angle_l	subtalar_angle_l	mtp_angle_l	lumbar_extension	lumbar_bending	lumbar_rotation	arm_flex_r	arm_add_r	arm_rot_r	elbow_flex_r	pro_sup_r	wrist_flex_r	wrist_dev_r	arm_flex_l	arm_add_l	arm_rot_l	elbow_flex_l	pro_sup_l	wrist_flex_l	wrist_dev_l
      1.11000000	      6.17565694	     -3.00611418	     -2.88610377	      0.53154926	      0.89690879	      0.99780186	    -10.18907943	      4.12835232	    -11.12176858	    -19.78577078	     -0.34532685	     12.21458868	      1.80433700	     -5.83115311	     19.73503509	      5.60533053	     14.40336161	    -30.15878351	     -0.52637007	      3.00653549	      4.70922733	     -9.80761368	     -8.59547872	      3.97111741	      4.95709869	      8.04474533	    -14.46602055	     17.86880458	     26.02218926	     89.95437384	      0.00000000	      0.00000000	      0.31151481	      6.61166047	    -10.21390984	     19.87050494	     89.95437384	      0.00000000	      0.00000000
      1.12000000	      5.92172783	     -2.92970406	     -3.70388711	      0.54496610	      0.89492354	      0.99824251	    -10.77766138	      3.74780166	    -10.68602955	    -20.00919951	     -0.34922641	     12.59595750	      2.21766466	     -6.20609954	     20.16329132	      5.66815750	     16.00336864	    -26.87640053	     -0.46908168	      2.87773466	      4.11161626	     -9.37196110	     -8.36718222	      3.80242016	      5.41694706	      8.77710020	    -14.68906305	     17.87157631	     27.20038608	     89.95437384	      0.00000000	      0.00000000	     -0.13627882	      6.45341865	    -10.69576093	     17.22219014	     89.95437384	      0.00000000	      0.00000000
      1.13000000	      5.64652721	     -2.84932127	     -4.42134727	      0.55836407	      0.89276640	      0.99856326	    -11.26464955	      3.37019706	    -10.29285628	    -20.34104272	     -0.35501817	     12.91726464	      2.53076318	     -6.55956358	     20.60434534	      5.73231036	     17.40802145	    -23.83720838	     -0.41603777	      2.78168709	      2.86279941	     -8.97320193	     -8.11259872	      3.63481453	      5.76715783	      9.44120747	    -14.89236171	     17.88007586	     28.44111924	     89.95437384	      0.00000000	      0.00000000	     -0.52764310	      6.29239045	    -11.39564740	     14.60472145	     89.95437384	      0.00000000	      0.00000000
      1.14000000	      5.27011936	     -2.79812535	     -5.08994033	      0.57169141	      0.89037569	      0.99880340	    -11.57564286	      3.03490522	     -9.78266701	    -20.77895880	     -0.36266125	     13.16865872	      2.66557749	     -6.88355645	     21.03121328	      5.78392836	     18.70204013	    -20.77867342	     -0.36265627	      2.73578251	      1.59407223	     -8.71831668	     -7.75678768	      3.52915320	      6.04321366	     10.03735880	    -15.04277696	     17.82570578	     29.71919979	     89.95437384	      0.00000000	      0.00000000	     -1.02162954	      6.19367977	    -12.55642041	     12.31130465	     89.95437384	      0.00000000	      0.00000000
      1.15000000	      4.94783941	     -2.78510734	     -5.68202814	      0.58522897	      0.88798168	      0.99906818	    -11.91167768	      2.69509787	     -9.38883318	    -21.29898495	     -0.37173741	     13.25569433	      3.24952787	     -7.75415874	     21.48834484	      5.99461389	     20.12052723	    -18.30043621	     -0.31940287	      2.47731259	     -0.59349734	     -8.49905517	     -7.40175705	      3.46321325	      6.32090241	     10.48721326	    -15.13449326	     17.51175113	     30.99616727	     89.95437384	      0.00000000	      0.00000000	     -1.77239152	      6.46271306	    -16.76665149	     10.71580971	     89.95437384	      0.00000000	      0.00000000
